<?xml version="1.0" encoding="UTF-8" standalone="no"?>
<!DOCTYPE svg PUBLIC "-//W3C//DTD SVG 1.1//EN"
 "http://www.w3.org/Graphics/SVG/1.1/DTD/svg11.dtd">
<!-- Generated by graphviz version 2.38.0 (20140413.2041)
 -->
<!-- Title: %3 Pages: 1 -->
<svg width="2665pt" height="425pt"
 viewBox="0.00 0.00 2665.31 424.81" xmlns="http://www.w3.org/2000/svg" xmlns:xlink="http://www.w3.org/1999/xlink">
<g id="graph0" class="graph" transform="scale(1 1) rotate(0) translate(4 420.813)">
<title>%3</title>
<polygon fill="white" stroke="none" points="-4,4 -4,-420.813 2661.31,-420.813 2661.31,4 -4,4"/>
<g id="clust1" class="cluster"><title>cluster1</title>
<path fill="none" stroke="black" d="M110.308,-78.9117C110.308,-78.9117 603.308,-78.9117 603.308,-78.9117 609.308,-78.9117 615.308,-84.9117 615.308,-90.9117 615.308,-90.9117 615.308,-309.35 615.308,-309.35 615.308,-315.35 609.308,-321.35 603.308,-321.35 603.308,-321.35 110.308,-321.35 110.308,-321.35 104.308,-321.35 98.3083,-315.35 98.3083,-309.35 98.3083,-309.35 98.3083,-90.9117 98.3083,-90.9117 98.3083,-84.9117 104.308,-78.9117 110.308,-78.9117"/>
<text text-anchor="middle" x="356.808" y="-306.15" font-family="Anka/Coder Narrow" font-size="14.00">Core libraries</text>
</g>
<g id="clust2" class="cluster"><title>cluster_tests</title>
<path fill="none" stroke="black" d="M1086.31,-332.324C1086.31,-332.324 2637.31,-332.324 2637.31,-332.324 2643.31,-332.324 2649.31,-338.324 2649.31,-344.324 2649.31,-344.324 2649.31,-396.813 2649.31,-396.813 2649.31,-402.813 2643.31,-408.813 2637.31,-408.813 2637.31,-408.813 1086.31,-408.813 1086.31,-408.813 1080.31,-408.813 1074.31,-402.813 1074.31,-396.813 1074.31,-396.813 1074.31,-344.324 1074.31,-344.324 1074.31,-338.324 1080.31,-332.324 1086.31,-332.324"/>
<text text-anchor="middle" x="1861.81" y="-393.613" font-family="Anka/Coder Narrow" font-size="14.00">Tests</text>
</g>
<!-- mcdp -->
<g id="node1" class="node"><title>mcdp</title>
<ellipse fill="none" stroke="black" cx="174.308" cy="-25.4558" rx="64.589" ry="25.4118"/>
<text text-anchor="start" x="161.703" y="-29.2558" font-family="Anka/Coder Narrow" font-weight="bold" font-size="14.00">mcdp</text>
<text text-anchor="start" x="136.492" y="-15.2558" font-family="Anka/Coder Narrow" font-size="14.00">main package</text>
</g>
<!-- mcdp_cli -->
<g id="node2" class="node"><title>mcdp_cli</title>
<ellipse fill="none" stroke="black" cx="45.3083" cy="-115.886" rx="45.1174" ry="18"/>
<text text-anchor="middle" x="45.3083" y="-112.931" font-family="Anka/Coder Narrow" font-size="14.00">mcdp_cli</text>
</g>
<!-- mcdp_cli&#45;&gt;mcdp -->
<g id="edge1" class="edge"><title>mcdp_cli&#45;&gt;mcdp</title>
<path fill="none" stroke="black" d="M67.1914,-99.8854C85.6761,-87.214 112.613,-68.7484 134.85,-53.5051"/>
<polygon fill="black" stroke="black" points="136.845,-56.3805 143.114,-47.8395 132.887,-50.6069 136.845,-56.3805"/>
</g>
<!-- mcdp_data -->
<g id="node3" class="node"><title>mcdp_data</title>
<ellipse fill="none" stroke="black" cx="485.308" cy="-358.324" rx="91.5689" ry="28.9496"/>
<text text-anchor="start" x="456.946" y="-363.613" font-family="Anka/Coder Narrow" font-size="14.00">mcdp_data</text>
<text text-anchor="start" x="428.584" y="-347.124" font-family="Anka/Coder Narrow" font-size="14.00">Contains libraries</text>
</g>
<!-- mcdp_docs -->
<g id="node4" class="node"><title>mcdp_docs</title>
<ellipse fill="none" stroke="black" cx="557.308" cy="-270.861" rx="49.7154" ry="18"/>
<text text-anchor="middle" x="557.308" y="-267.905" font-family="Anka/Coder Narrow" font-size="14.00">mcdp_docs</text>
</g>
<!-- mcdp_figures -->
<g id="node6" class="node"><title>mcdp_figures</title>
<ellipse fill="none" stroke="black" cx="544.308" cy="-198.861" rx="62.5109" ry="18"/>
<text text-anchor="middle" x="544.308" y="-195.905" font-family="Anka/Coder Narrow" font-size="14.00">mcdp_figures</text>
</g>
<!-- mcdp_docs&#45;&gt;mcdp_figures -->
<g id="edge6" class="edge"><title>mcdp_docs&#45;&gt;mcdp_figures</title>
<path fill="none" stroke="black" d="M554.095,-252.558C552.662,-244.844 550.941,-235.574 549.343,-226.974"/>
<polygon fill="black" stroke="black" points="552.752,-226.158 547.485,-216.966 545.87,-227.437 552.752,-226.158"/>
</g>
<!-- mcdp_dp -->
<g id="node5" class="node"><title>mcdp_dp</title>
<ellipse fill="none" stroke="black" cx="313.308" cy="-198.861" rx="41.0181" ry="18"/>
<text text-anchor="middle" x="313.308" y="-195.905" font-family="Anka/Coder Narrow" font-size="14.00">mcdp_dp</text>
</g>
<!-- mcdp_posets -->
<g id="node11" class="node"><title>mcdp_posets</title>
<ellipse fill="none" stroke="black" cx="304.308" cy="-115.886" rx="198.491" ry="28.9496"/>
<text text-anchor="start" x="269.643" y="-121.175" font-family="Anka/Coder Narrow" font-size="14.00">mcdp_posets</text>
<text text-anchor="start" x="171.951" y="-104.686" font-family="Anka/Coder Narrow" font-size="14.00">Implements Posets and relations among them</text>
</g>
<!-- mcdp_dp&#45;&gt;mcdp_posets -->
<g id="edge3" class="edge"><title>mcdp_dp&#45;&gt;mcdp_posets</title>
<path fill="none" stroke="black" d="M311.4,-180.689C310.56,-173.133 309.537,-163.934 308.533,-154.9"/>
<polygon fill="black" stroke="black" points="312.002,-154.419 307.418,-144.867 305.044,-155.192 312.002,-154.419"/>
</g>
<!-- mcdp_ndp -->
<g id="node28" class="node"><title>mcdp_ndp</title>
<ellipse fill="none" stroke="black" cx="668.308" cy="-115.886" rx="45.1174" ry="18"/>
<text text-anchor="middle" x="668.308" y="-112.931" font-family="Anka/Coder Narrow" font-size="14.00">mcdp_ndp</text>
</g>
<!-- mcdp_figures&#45;&gt;mcdp_ndp -->
<g id="edge5" class="edge"><title>mcdp_figures&#45;&gt;mcdp_ndp</title>
<path fill="none" stroke="black" d="M568.511,-182.056C588.21,-169.192 616.141,-150.953 637.446,-137.04"/>
<polygon fill="black" stroke="black" points="639.377,-139.96 645.836,-131.561 635.549,-134.099 639.377,-139.96"/>
</g>
<!-- mcdp_lang -->
<g id="node7" class="node"><title>mcdp_lang</title>
<ellipse fill="none" stroke="black" cx="247.308" cy="-270.861" rx="49.7154" ry="18"/>
<text text-anchor="middle" x="247.308" y="-267.905" font-family="Anka/Coder Narrow" font-size="14.00">mcdp_lang</text>
</g>
<!-- mcdp_maps -->
<g id="node9" class="node"><title>mcdp_maps</title>
<ellipse fill="none" stroke="black" cx="221.308" cy="-198.861" rx="49.7154" ry="18"/>
<text text-anchor="middle" x="221.308" y="-195.905" font-family="Anka/Coder Narrow" font-size="14.00">mcdp_maps</text>
</g>
<!-- mcdp_lang&#45;&gt;mcdp_maps -->
<g id="edge7" class="edge"><title>mcdp_lang&#45;&gt;mcdp_maps</title>
<path fill="none" stroke="black" d="M241.014,-252.916C238.088,-245.037 234.537,-235.478 231.26,-226.655"/>
<polygon fill="black" stroke="black" points="234.488,-225.292 227.725,-217.137 227.926,-227.73 234.488,-225.292"/>
</g>
<!-- mcdp_lang&#45;&gt;mcdp_posets -->
<g id="edge8" class="edge"><title>mcdp_lang&#45;&gt;mcdp_posets</title>
<path fill="none" stroke="black" d="M216.886,-256.341C201.094,-247.556 183.27,-234.443 174.308,-216.861 167.042,-202.606 165.854,-194.445 174.308,-180.861 183.004,-166.89 195.746,-155.882 209.897,-147.234"/>
<polygon fill="black" stroke="black" points="211.893,-150.126 218.867,-142.149 208.441,-144.036 211.893,-150.126"/>
</g>
<!-- mcdp_lang&#45;&gt;mcdp_ndp -->
<g id="edge9" class="edge"><title>mcdp_lang&#45;&gt;mcdp_ndp</title>
<path fill="none" stroke="black" d="M281.909,-257.914C288.304,-256.008 294.965,-254.22 301.308,-252.861 368.258,-238.518 549.665,-253.811 607.308,-216.861 633.701,-199.943 650.429,-167.139 659.561,-143.721"/>
<polygon fill="black" stroke="black" points="662.96,-144.617 663.122,-134.024 656.389,-142.204 662.96,-144.617"/>
</g>
<!-- mcdp_library -->
<g id="node8" class="node"><title>mcdp_library</title>
<ellipse fill="none" stroke="black" cx="418.308" cy="-198.861" rx="62.5109" ry="18"/>
<text text-anchor="middle" x="418.308" y="-195.905" font-family="Anka/Coder Narrow" font-size="14.00">mcdp_library</text>
</g>
<!-- mcdp_library&#45;&gt;mcdp_ndp -->
<g id="edge11" class="edge"><title>mcdp_library&#45;&gt;mcdp_ndp</title>
<path fill="none" stroke="black" d="M463.441,-186.285C517.077,-172.44 601.133,-150.429 615.308,-144.861 621.815,-142.306 628.557,-139.165 634.963,-135.922"/>
<polygon fill="black" stroke="black" points="636.815,-138.902 644.04,-131.153 633.56,-132.705 636.815,-138.902"/>
</g>
<!-- mcdp_maps&#45;&gt;mcdp_posets -->
<g id="edge10" class="edge"><title>mcdp_maps&#45;&gt;mcdp_posets</title>
<path fill="none" stroke="black" d="M237.706,-181.863C246.535,-173.25 257.792,-162.268 268.527,-151.794"/>
<polygon fill="black" stroke="black" points="271.127,-154.148 275.841,-144.66 266.239,-149.138 271.127,-154.148"/>
</g>
<!-- mcdp_opt -->
<g id="node10" class="node"><title>mcdp_opt</title>
<ellipse fill="none" stroke="black" cx="343.308" cy="-270.861" rx="45.1174" ry="18"/>
<text text-anchor="middle" x="343.308" y="-267.905" font-family="Anka/Coder Narrow" font-size="14.00">mcdp_opt</text>
</g>
<!-- mcdp_posets&#45;&gt;mcdp -->
<g id="edge2" class="edge"><title>mcdp_posets&#45;&gt;mcdp</title>
<path fill="none" stroke="black" d="M263.888,-87.3912C248.04,-76.6109 229.906,-64.2754 214.118,-53.5356"/>
<polygon fill="black" stroke="black" points="215.854,-50.4838 205.617,-47.7532 211.917,-56.2716 215.854,-50.4838"/>
</g>
<!-- mcdp_report -->
<g id="node12" class="node"><title>mcdp_report</title>
<ellipse fill="none" stroke="black" cx="448.308" cy="-270.861" rx="58.4131" ry="18"/>
<text text-anchor="middle" x="448.308" y="-267.905" font-family="Anka/Coder Narrow" font-size="14.00">mcdp_report</text>
</g>
<!-- mcdp_report&#45;&gt;mcdp_library -->
<g id="edge12" class="edge"><title>mcdp_report&#45;&gt;mcdp_library</title>
<path fill="none" stroke="black" d="M441.046,-252.916C437.633,-244.953 433.484,-235.272 429.67,-226.371"/>
<polygon fill="black" stroke="black" points="432.868,-224.949 425.712,-217.137 426.434,-227.707 432.868,-224.949"/>
</g>
<!-- mcdpcomp -->
<g id="node13" class="node"><title>mcdpcomp</title>
<ellipse fill="none" stroke="black" cx="151.308" cy="-270.861" rx="45.1174" ry="18"/>
<text text-anchor="middle" x="151.308" y="-267.905" font-family="Anka/Coder Narrow" font-size="14.00">mcdpcomp</text>
</g>
<!-- mcdp_depgraph -->
<g id="node14" class="node"><title>mcdp_depgraph</title>
<ellipse fill="none" stroke="black" cx="644.308" cy="-358.324" rx="66.61" ry="18"/>
<text text-anchor="middle" x="644.308" y="-355.369" font-family="Anka/Coder Narrow" font-size="14.00">mcdp_depgraph</text>
</g>
<!-- mcdp_web -->
<g id="node15" class="node"><title>mcdp_web</title>
<ellipse fill="none" stroke="black" cx="347.308" cy="-358.324" rx="45.1174" ry="18"/>
<text text-anchor="middle" x="347.308" y="-355.369" font-family="Anka/Coder Narrow" font-size="14.00">mcdp_web</text>
</g>
<!-- mcdp_web&#45;&gt;mcdp_docs -->
<g id="edge13" class="edge"><title>mcdp_web&#45;&gt;mcdp_docs</title>
<path fill="none" stroke="black" d="M368.797,-342.305C377.033,-337.305 386.753,-332.271 396.308,-329.35 441.913,-315.407 459.539,-340.281 503.308,-321.35 516.386,-315.693 528.36,-305.508 537.692,-295.842"/>
<polygon fill="black" stroke="black" points="540.422,-298.042 544.58,-288.297 535.253,-293.323 540.422,-298.042"/>
</g>
<!-- mcdp_web&#45;&gt;mcdp_lang -->
<g id="edge14" class="edge"><title>mcdp_web&#45;&gt;mcdp_lang</title>
<path fill="none" stroke="black" d="M326.883,-341.899C318.805,-335.657 309.509,-328.295 301.308,-321.35 291.302,-312.874 280.594,-303.196 271.374,-294.66"/>
<polygon fill="black" stroke="black" points="273.729,-292.069 264.028,-287.81 268.955,-297.189 273.729,-292.069"/>
</g>
<!-- mcdp_web&#45;&gt;mcdp_library -->
<g id="edge15" class="edge"><title>mcdp_web&#45;&gt;mcdp_library</title>
<path fill="none" stroke="black" d="M302.026,-357.209C240.043,-355.977 133.664,-349.664 109.308,-321.35 89.458,-298.273 89.431,-275.914 109.308,-252.861 144.812,-211.685 298.002,-227.561 351.308,-216.861 355.478,-216.024 359.777,-215.093 364.09,-214.111"/>
<polygon fill="black" stroke="black" points="365.195,-217.446 374.123,-211.742 363.587,-210.633 365.195,-217.446"/>
</g>
<!-- mcdp_web&#45;&gt;mcdp_report -->
<g id="edge16" class="edge"><title>mcdp_web&#45;&gt;mcdp_report</title>
<path fill="none" stroke="black" d="M365.833,-341.649C381.439,-328.444 403.965,-309.383 421.534,-294.517"/>
<polygon fill="black" stroke="black" points="423.842,-297.149 429.215,-288.018 419.32,-291.806 423.842,-297.149"/>
</g>
<!-- mcdp_ext_libraries -->
<g id="node16" class="node"><title>mcdp_ext_libraries</title>
<ellipse fill="none" stroke="black" cx="800.308" cy="-358.324" rx="88.1027" ry="18"/>
<text text-anchor="middle" x="800.308" y="-355.369" font-family="Anka/Coder Narrow" font-size="14.00">mcdp_ext_libraries</text>
</g>
<!-- mcdp_ipython_utils -->
<g id="node17" class="node"><title>mcdp_ipython_utils</title>
<ellipse fill="none" stroke="black" cx="978.308" cy="-358.324" rx="88.1027" ry="18"/>
<text text-anchor="middle" x="978.308" y="-355.369" font-family="Anka/Coder Narrow" font-size="14.00">mcdp_ipython_utils</text>
</g>
<!-- mcdp_docs_tests -->
<g id="node18" class="node"><title>mcdp_docs_tests</title>
<ellipse fill="none" stroke="black" cx="2566.31" cy="-358.324" rx="75.3067" ry="18"/>
<text text-anchor="middle" x="2566.31" y="-355.369" font-family="Anka/Coder Narrow" font-size="14.00">mcdp_docs_tests</text>
</g>
<!-- mcdp_dp_tests -->
<g id="node19" class="node"><title>mcdp_dp_tests</title>
<ellipse fill="none" stroke="black" cx="2423.31" cy="-358.324" rx="66.61" ry="18"/>
<text text-anchor="middle" x="2423.31" y="-355.369" font-family="Anka/Coder Narrow" font-size="14.00">mcdp_dp_tests</text>
</g>
<!-- mcdp_figures_tests -->
<g id="node20" class="node"><title>mcdp_figures_tests</title>
<ellipse fill="none" stroke="black" cx="2267.31" cy="-358.324" rx="88.1027" ry="18"/>
<text text-anchor="middle" x="2267.31" y="-355.369" font-family="Anka/Coder Narrow" font-size="14.00">mcdp_figures_tests</text>
</g>
<!-- mcdp_lang_tests -->
<g id="node21" class="node"><title>mcdp_lang_tests</title>
<ellipse fill="none" stroke="black" cx="2102.31" cy="-358.324" rx="75.3067" ry="18"/>
<text text-anchor="middle" x="2102.31" y="-355.369" font-family="Anka/Coder Narrow" font-size="14.00">mcdp_lang_tests</text>
</g>
<!-- mcdp_library_tests -->
<g id="node22" class="node"><title>mcdp_library_tests</title>
<ellipse fill="none" stroke="black" cx="1937.31" cy="-358.324" rx="88.1027" ry="18"/>
<text text-anchor="middle" x="1937.31" y="-355.369" font-family="Anka/Coder Narrow" font-size="14.00">mcdp_library_tests</text>
</g>
<!-- mcdp_opt_tests -->
<g id="node23" class="node"><title>mcdp_opt_tests</title>
<ellipse fill="none" stroke="black" cx="1777.31" cy="-358.324" rx="71.2082" ry="18"/>
<text text-anchor="middle" x="1777.31" y="-355.369" font-family="Anka/Coder Narrow" font-size="14.00">mcdp_opt_tests</text>
</g>
<!-- mcdp_posets_tests -->
<g id="node24" class="node"><title>mcdp_posets_tests</title>
<ellipse fill="none" stroke="black" cx="1621.31" cy="-358.324" rx="84.0037" ry="18"/>
<text text-anchor="middle" x="1621.31" y="-355.369" font-family="Anka/Coder Narrow" font-size="14.00">mcdp_posets_tests</text>
</g>
<!-- mcdp_report_ndp_tests -->
<g id="node25" class="node"><title>mcdp_report_ndp_tests</title>
<ellipse fill="none" stroke="black" cx="1435.31" cy="-358.324" rx="101.398" ry="18"/>
<text text-anchor="middle" x="1435.31" y="-355.369" font-family="Anka/Coder Narrow" font-size="14.00">mcdp_report_ndp_tests</text>
</g>
<!-- mcdp_web_tests -->
<g id="node26" class="node"><title>mcdp_web_tests</title>
<ellipse fill="none" stroke="black" cx="1262.31" cy="-358.324" rx="71.2082" ry="18"/>
<text text-anchor="middle" x="1262.31" y="-355.369" font-family="Anka/Coder Narrow" font-size="14.00">mcdp_web_tests</text>
</g>
<!-- mcdp_tests -->
<g id="node27" class="node"><title>mcdp_tests</title>
<ellipse fill="none" stroke="black" cx="1136.31" cy="-358.324" rx="53.8139" ry="18"/>
<text text-anchor="middle" x="1136.31" y="-355.369" font-family="Anka/Coder Narrow" font-size="14.00">mcdp_tests</text>
</g>
<!-- mcdp_ndp&#45;&gt;mcdp_dp -->
<g id="edge4" class="edge"><title>mcdp_ndp&#45;&gt;mcdp_dp</title>
<path fill="none" stroke="black" d="M645.071,-131.39C636.078,-136.396 625.506,-141.567 615.308,-144.861 505.554,-180.311 470.055,-152.305 358.308,-180.861 356.139,-181.416 353.93,-182.04 351.714,-182.715"/>
<polygon fill="black" stroke="black" points="350.44,-179.45 342.052,-185.924 352.646,-186.093 350.44,-179.45"/>
</g>
</g>
</svg>
